<svg xmlns="http://www.w3.org/2000/svg" viewBox="0 0 314.75 272"><defs><style>.cls-1{fill:#c53800;}.cls-2{fill:none;stroke:#c53800;stroke-linecap:round;stroke-miterlimit:10;stroke-width:25px;}</style></defs><title>wifi_no</title><g id="圖層_2" data-name="圖層 2"><g id="圖層_2-2" data-name="圖層 2"><path class="cls-1" d="M155.69,101.79a146.51,146.51,0,0,0-101.38,40.5A22.48,22.48,0,0,0,53.5,174a22.62,22.62,0,0,0,16.3,7,22.34,22.34,0,0,0,15.48-6.18,102.21,102.21,0,0,1,140.57-.24A22.47,22.47,0,1,0,256.73,142,146.61,146.61,0,0,0,155.69,101.79Z"/><path class="cls-1" d="M304.06,80.45A216,216,0,0,0,7,80.93a22.48,22.48,0,0,0-.81,31.75,22.59,22.59,0,0,0,16.3,7A22.35,22.35,0,0,0,38,113.49a171,171,0,0,1,235.27-.35,22.54,22.54,0,0,0,31.74-.92,22.48,22.48,0,0,0-.9-31.77Z"/><path class="cls-1" d="M159.29,183.35a43.83,43.83,0,1,0,43.83,43.83A43.88,43.88,0,0,0,159.29,183.35Zm.3,43.83c0,.29-.59.29-.59,0a.3.3,0,1,1,.59,0Z"/><line class="cls-2" x1="302.25" y1="12.5" x2="47.25" y2="259.5"/></g></g></svg>