<?xml version="1.0" encoding="utf-8"?>
<!-- Generator: Adobe Illustrator 23.0.1, SVG Export Plug-In . SVG Version: 6.00 Build 0)  -->
<svg version="1.1" id="圖層_1" xmlns="http://www.w3.org/2000/svg" xmlns:xlink="http://www.w3.org/1999/xlink" x="0px" y="0px"
	 viewBox="0 0 314.8 272" style="enable-background:new 0 0 314.8 272;" xml:space="preserve">
<style type="text/css">
	.st0{fill:#027DAC;}
</style>
<title>wifi_no</title>
<g>
	<g id="圖層_2-2">
		<path class="st0" d="M155.7,102.3c-37.7-0.1-74.1,14.4-101.4,40.5c-9,8.5-9.3,22.8-0.8,31.8c4.3,4.5,10.1,7,16.3,7
			c5.8,0,11.3-2.2,15.5-6.2c39.4-37.4,101.1-37.5,140.6-0.2c9,8.5,23.2,8.2,31.8-0.8c8.5-9,8.2-23.2-0.8-31.8c0,0,0,0-0.1-0.1
			C229.4,116.6,193.3,102.2,155.7,102.3z"/>
		<path class="st0" d="M304.1,81C220.6,2.2,90.2,2.4,7,81.4c-9,8.5-9.3,22.8-0.8,31.8c4.3,4.5,10.1,7,16.3,7
			c5.8,0,11.3-2.2,15.5-6.2c65.9-62.6,169.2-62.8,235.3-0.4c9,8.5,23.2,8.1,31.7-0.9C313.5,103.7,313.1,89.5,304.1,81L304.1,81z"/>
		<path class="st0" d="M159.3,183.8c-24.2,0-43.8,19.6-43.8,43.8s19.6,43.8,43.8,43.8s43.8-19.6,43.8-43.8c0,0,0,0,0,0
			C203.1,203.5,183.5,183.9,159.3,183.8z M159.6,227.7c0,0.3-0.6,0.3-0.6,0c0-0.2,0.1-0.3,0.3-0.3
			C159.4,227.4,159.6,227.5,159.6,227.7L159.6,227.7z"/>
	</g>
</g>
</svg>
