<svg xmlns="http://www.w3.org/2000/svg" viewBox="0 0 733.17 68.05"><defs><style>.cls-1{fill:#333;}</style></defs><title>logo_text</title><g id="圖層_2" data-name="圖層 2"><g id="圖層_2-2" data-name="圖層 2"><path class="cls-1" d="M17.47,17a3.53,3.53,0,0,1,1.77-1.35,2.74,2.74,0,0,1,2.26.07,2.15,2.15,0,0,1,1.28,1.35,1.88,1.88,0,0,1-.28,1.84,93.79,93.79,0,0,1-6.16,8.2A1.4,1.4,0,0,0,16,28V63a2.6,2.6,0,0,1-.78,1.91,2.64,2.64,0,0,1-3.75,0A2.6,2.6,0,0,1,10.68,63V34a.16.16,0,0,0-.14-.17.21.21,0,0,0-.21,0q-3,3.12-5.59,5.31A2.57,2.57,0,0,1,3,39.83a1.43,1.43,0,0,1-.35-.07A2.9,2.9,0,0,1,.71,38.69,2.53,2.53,0,0,1,0,36.93a2.69,2.69,0,0,1,1.06-2.2,77.28,77.28,0,0,0,8.7-8.13A74.52,74.52,0,0,0,17.47,17ZM14.29,1.49a4,4,0,0,1,2-1.28,3.76,3.76,0,0,1,1-.14,4,4,0,0,1,1.27.21A2.15,2.15,0,0,1,19.81,1.7a2,2,0,0,1-.36,1.84,87.58,87.58,0,0,1-6.86,7.35,90.13,90.13,0,0,1-7.85,6.79,2.35,2.35,0,0,1-1.95.54,2.55,2.55,0,0,1-1.73-1.1,2.48,2.48,0,0,1-.46-2,2.58,2.58,0,0,1,1-1.73,71.19,71.19,0,0,0,7-5.94A60.08,60.08,0,0,0,14.29,1.49ZM63,23.49a2.51,2.51,0,0,1,1.87.74,2.63,2.63,0,0,1,0,3.68,2.55,2.55,0,0,1-1.87.74H55.18c-.38,0-.57.16-.57.49V58.57a8.37,8.37,0,0,1-.71,3.86,4.28,4.28,0,0,1-2.47,1.94c-1.56.47-5.17.76-10.83.85a3.18,3.18,0,0,1-2.12-.78,4,4,0,0,1-1.34-1.91,1.85,1.85,0,0,1,.25-1.69,1.65,1.65,0,0,1,1.45-.78c2.12,0,3.89.07,5.3.07s2.45,0,3.26-.07a2.52,2.52,0,0,0,1.41-.39,1.56,1.56,0,0,0,.35-1.17V29.14a.43.43,0,0,0-.49-.49H27.59a2.57,2.57,0,0,1-1.88-.74,2.58,2.58,0,0,1,1.88-4.42ZM60.91,3.68a2.48,2.48,0,0,1,1.8.74,2.45,2.45,0,0,1,.74,1.81A2.45,2.45,0,0,1,62.71,8a2.48,2.48,0,0,1-1.8.74H30.63a2.54,2.54,0,0,1-2.55-2.54,2.54,2.54,0,0,1,2.55-2.55Z"/><path class="cls-1" d="M123.27,17.19c0,.33.12.49.5.49h10.61a4,4,0,0,1,3,1.28,4,4,0,0,1,1.13,2.83q0,15.92-1.35,31.41-.76,8.55-2.54,10.75a5.2,5.2,0,0,1-2,1.91,9.26,9.26,0,0,1-2.83.78c-.95.09-2.15.14-3.61.14h-2.55a3.17,3.17,0,0,1-2-.85,4.39,4.39,0,0,1-1.2-1.91,1.91,1.91,0,0,1,.28-1.59,1.44,1.44,0,0,1,1.42-.67c2,.09,3.82.14,5.37.14a3.16,3.16,0,0,0,2.62-1.14q1.2-1.62,2-9.9t1.31-27.52a.5.5,0,0,0-.57-.56h-9.27a.49.49,0,0,0-.56.56q-.36,7.22-1.17,12.91a80.57,80.57,0,0,1-2.44,11.25A42.08,42.08,0,0,1,115,57.62a35.08,35.08,0,0,1-6.76,8,2.51,2.51,0,0,1-2,.63,3.47,3.47,0,0,1-2-.92,2.29,2.29,0,0,1-.78-1.77,2.07,2.07,0,0,1,.78-1.69,5.87,5.87,0,0,0,.64-.57c.09,0,.12-.11.07-.18s-.1-.08-.14,0q-12.39,1.41-27.52,3a2.38,2.38,0,0,1-1.8-.46,2.31,2.31,0,0,1-1-1.59,2,2,0,0,1,.39-1.73,2.15,2.15,0,0,1,1.59-.82l12.81-1.2a.56.56,0,0,0,.49-.64V52.56a.44.44,0,0,0-.49-.5H78.21a2,2,0,0,1-2-2.05,2.09,2.09,0,0,1,.6-1.48,1.9,1.9,0,0,1,1.45-.64H89.32a.43.43,0,0,0,.49-.49V44.07c0-.38-.17-.57-.49-.57H80.47a4,4,0,0,1-3-1.23,4.1,4.1,0,0,1-1.2-2.94V26.17A4.1,4.1,0,0,1,80.47,22h8.85c.32,0,.49-.19.49-.57V18c0-.38-.17-.57-.49-.57h-13a2.07,2.07,0,0,1-1.52-.6,2.14,2.14,0,0,1,0-3,2.07,2.07,0,0,1,1.52-.6h13c.32,0,.49-.19.49-.57V9c0-.37-.17-.54-.49-.49-4,.28-7.62.52-11,.71a2.65,2.65,0,0,1-1.66-.57,2.92,2.92,0,0,1-1-1.41,1.68,1.68,0,0,1,.18-1.38A1.27,1.27,0,0,1,77,5.16a218.61,218.61,0,0,0,26.74-3,6,6,0,0,1,.84-.07,3.44,3.44,0,0,1,2.91,1.63,1.65,1.65,0,0,1,.14,1.59,1.58,1.58,0,0,1-1.28,1q-4.24.84-11.17,1.55a.56.56,0,0,0-.5.64v4.17c0,.38.17.57.5.57h12.73a2.07,2.07,0,0,1,1.52.6,2.14,2.14,0,0,1,0,3,2.07,2.07,0,0,1-1.52.6H95.19c-.33,0-.5.19-.5.57v3.46c0,.38.17.57.5.57h9.4a4.06,4.06,0,0,1,2.94,1.2,4,4,0,0,1,1.24,3V39.33a4.22,4.22,0,0,1-4.18,4.17h-9.4c-.33,0-.5.19-.5.57V47.4a.44.44,0,0,0,.5.49h11.6a2,2,0,0,1,1.52.64,2.09,2.09,0,0,1,.6,1.48,2,2,0,0,1-.6,1.45,2.07,2.07,0,0,1-1.52.6H95.19a.44.44,0,0,0-.5.5v4.67c0,.38.17.54.5.49q7.28-.63,13.65-1.41c.24-.05.35,0,.35.28a39,39,0,0,0,6.26-14A105.46,105.46,0,0,0,118,23.34c.05-.37-.11-.56-.49-.56h-5.38a2.48,2.48,0,0,1-1.8-.74,2.45,2.45,0,0,1-.74-1.81,2.41,2.41,0,0,1,.74-1.8,2.45,2.45,0,0,1,1.8-.75h5.52c.38,0,.57-.16.57-.49q.13-4.67.14-12.8a2.49,2.49,0,0,1,.74-1.81,2.49,2.49,0,0,1,3.54,0,2.49,2.49,0,0,1,.74,1.81Q123.34,12.52,123.27,17.19Zm-42,8.49a.49.49,0,0,0-.56.56v4.11a.49.49,0,0,0,.56.56h8.07c.32,0,.49-.18.49-.56V26.24c0-.37-.17-.56-.49-.56Zm-.56,13.51a.5.5,0,0,0,.56.57h8.07c.32,0,.49-.19.49-.57V35c0-.38-.17-.57-.49-.57H81.25a.5.5,0,0,0-.56.57Zm23.48-12.95c0-.37-.17-.56-.49-.56H95.19c-.33,0-.5.19-.5.56v4.11c0,.38.17.56.5.56h8.49c.32,0,.49-.18.49-.56Zm-.49,13.52c.32,0,.49-.19.49-.57V35c0-.38-.17-.57-.49-.57H95.19c-.33,0-.5.19-.5.57v4.17c0,.38.17.57.5.57Z"/><path class="cls-1" d="M167.31,25a.43.43,0,0,0-.49-.49H160.1a.52.52,0,0,0-.57.49,22.75,22.75,0,0,1-2.26,7,13.89,13.89,0,0,1-4.46,4.84A2.28,2.28,0,0,1,151,37a2.9,2.9,0,0,1-1.59-1,1.61,1.61,0,0,1-.5-1.21,1.76,1.76,0,0,1,.85-1.55q3.67-2.62,4.74-8.28c0-.33-.1-.49-.43-.49h-2.54a2.14,2.14,0,0,1-1.56-.64,2.16,2.16,0,0,1,1.56-3.68h15.28a.43.43,0,0,0,.49-.49V15.49a.43.43,0,0,0-.49-.49H157.9c-.14,0-.21,0-.21.14a1.45,1.45,0,0,1-.42,1.06,1.46,1.46,0,0,1-1.06.42h-.85a2.18,2.18,0,0,1-1.6-.67,2.29,2.29,0,0,1-.67-1.66v-10a2.29,2.29,0,0,1,.67-1.66,2.32,2.32,0,0,1,3.26,0,2.25,2.25,0,0,1,.67,1.66v5.95c0,.33.19.49.57.49h8.56a.43.43,0,0,0,.49-.49V3.47A2.53,2.53,0,0,1,169.86.92a2.45,2.45,0,0,1,1.8.74,2.46,2.46,0,0,1,.75,1.81V33.88a2.54,2.54,0,0,1-2.55,2.55,2.53,2.53,0,0,1-2.55-2.55Zm36.43,21.29a3.43,3.43,0,0,1,4,0,1.65,1.65,0,0,1,.75,1.45,1.71,1.71,0,0,1-.75,1.38A103.48,103.48,0,0,1,197,55a.37.37,0,0,0-.18.25.22.22,0,0,0,.11.25,47.17,47.17,0,0,0,15.14,6.79,1.77,1.77,0,0,1,.85,2.76,4.38,4.38,0,0,1-1.84,1.48,3.12,3.12,0,0,1-1.27.29,2.34,2.34,0,0,1-.92-.21,47.79,47.79,0,0,1-16.7-8.71A42,42,0,0,1,181,43.72a.27.27,0,0,0-.36,0,56.71,56.71,0,0,1-10.11,6.22.78.78,0,0,0-.5.78v8.7c0,.33.19.47.57.43q9.41-1.27,15.21-2.13A1.9,1.9,0,0,1,188,59.56a2.29,2.29,0,0,1-.53,1.66,2.38,2.38,0,0,1-1.52.89Q170.21,64.45,159.11,66a2.26,2.26,0,0,1-1.7-.42,2.5,2.5,0,0,1-1-1.56,2.07,2.07,0,0,1,.42-1.66,2.24,2.24,0,0,1,1.49-.89l3.32-.42,2.83-.36a.57.57,0,0,0,.57-.63V52.91q0-.13-.18-.24a.3.3,0,0,0-.32,0,86.54,86.54,0,0,1-11,3.54,7.85,7.85,0,0,1-.92.07,3.7,3.7,0,0,1-3-1.63,1.44,1.44,0,0,1-.25-1.41,1.41,1.41,0,0,1,1.1-1A73.56,73.56,0,0,0,173,43.93a.17.17,0,0,0,0-.18c0-.07-.06-.1-.11-.1H151.25A2.12,2.12,0,0,1,149.7,43a2.06,2.06,0,0,1-.64-1.52A2,2,0,0,1,149.7,40a2.17,2.17,0,0,1,1.55-.6h27c.33,0,.49-.19.49-.56V36.36a2.51,2.51,0,0,1,.78-1.84,2.64,2.64,0,0,1,3.75,0,2.51,2.51,0,0,1,.78,1.84v2.48c0,.37.16.56.49.56h26.88A2.19,2.19,0,0,1,213,40a2,2,0,0,1,.64,1.49A2.1,2.1,0,0,1,213,43a2.14,2.14,0,0,1-1.56.64H186.62a.28.28,0,0,0-.24.14.33.33,0,0,0,0,.35,39.84,39.84,0,0,0,6.44,7.92.71.71,0,0,0,.85.15A107.77,107.77,0,0,0,203.74,46.26ZM190.58,27.38c.33,0,.5-.19.5-.57V16.13a.44.44,0,0,0-.5-.5H177.85a2.26,2.26,0,0,1-1.63-.7,2.38,2.38,0,0,1,1.63-4h12.73a.44.44,0,0,0,.5-.49V3.54a2.51,2.51,0,0,1,.78-1.84,2.64,2.64,0,0,1,3.75,0,2.51,2.51,0,0,1,.78,1.84V10.4a.43.43,0,0,0,.49.49h13.37a2.21,2.21,0,0,1,1.66.71,2.4,2.4,0,0,1,0,3.33,2.2,2.2,0,0,1-1.66.7H196.88a.44.44,0,0,0-.49.5V26.81c0,.38.16.57.49.57h11.88a2.27,2.27,0,0,1,1.67.67,2.31,2.31,0,0,1,0,3.25,2.27,2.27,0,0,1-1.67.67H179.34a2.14,2.14,0,0,1-1.59-.67,2.28,2.28,0,0,1,0-3.25,2.14,2.14,0,0,1,1.59-.67Z"/><path class="cls-1" d="M241.21,34.87a4,4,0,0,1,1.23-3,4.1,4.1,0,0,1,2.94-1.2h6.08a.58.58,0,0,0,.64-.57s.07-.47.21-1.27.26-1.41.36-1.84-.1-.56-.43-.56H226.7a2,2,0,0,1-1.52-.61,2,2,0,0,1-.6-1.48,2.13,2.13,0,0,1,.6-1.52,2,2,0,0,1,1.52-.64h26.18a.5.5,0,0,0,.56-.49c.19-1.7.31-2.67.36-2.9a.44.44,0,0,0-.5-.5H232.08a4,4,0,0,1-3-1.24,4.06,4.06,0,0,1-1.2-2.93v-6A4.1,4.1,0,0,1,232.08,4h47.47a4.1,4.1,0,0,1,4.17,4.18v6a4.06,4.06,0,0,1-1.2,2.93,4,4,0,0,1-3,1.24H259.81a.56.56,0,0,0-.64.5c0,.33-.11.81-.21,1.45s-.16,1.09-.21,1.38.12.56.49.56h25.33a2,2,0,0,1,1.52.64,2.13,2.13,0,0,1,.6,1.52,2,2,0,0,1-.6,1.48,2,2,0,0,1-1.52.61h-26.1c-.33,0-.52.19-.57.56,0,.05-.19,1.09-.57,3.11,0,.38.1.57.43.57H276.5a4.1,4.1,0,0,1,4.18,4.17V51.5a4.06,4.06,0,0,1-1.2,2.93,4,4,0,0,1-3,1.24H245.38a4.22,4.22,0,0,1-4.17-4.17ZM286.34,59.7a2.12,2.12,0,0,1,1.55.64,2.2,2.2,0,0,1-1.55,3.75H234.27a.31.31,0,0,0-.35.35,2.69,2.69,0,1,1-5.38,0v-30a2.69,2.69,0,1,1,5.38,0V59.21c0,.33.16.49.5.49ZM244,14.29a.44.44,0,0,0,.5-.5V8.42c0-.38-.17-.57-.5-.57H233.5c-.33,0-.5.19-.5.57v5.37a.44.44,0,0,0,.5.5ZM275,37.92c.38,0,.56-.17.56-.5v-2.9c0-.33-.18-.49-.56-.49h-28.3a.43.43,0,0,0-.49.49v2.9a.44.44,0,0,0,.49.5Zm0,7.21a.49.49,0,0,0,.56-.56v-2.9a.5.5,0,0,0-.56-.57h-28.3c-.33,0-.49.19-.49.57v2.9c0,.37.16.56.49.56Zm0,7.29a.5.5,0,0,0,.56-.57v-3c0-.33-.18-.49-.56-.49h-28.3a.43.43,0,0,0-.49.49v3c0,.38.16.57.49.57ZM250,7.85c-.33,0-.5.19-.5.57v5.37a.44.44,0,0,0,.5.5h10.75c.38,0,.57-.17.57-.5V8.42a.5.5,0,0,0-.57-.57Zm16.83,0c-.33,0-.49.19-.49.57v5.37a.44.44,0,0,0,.49.5h11.11c.38,0,.57-.17.57-.5V8.42a.5.5,0,0,0-.57-.57Z"/><path class="cls-1" d="M354,21.72a4,4,0,0,1-1.24,3,4.1,4.1,0,0,1-2.94,1.2H334.34a.5.5,0,0,0-.57.57v1.48c0,.33.19.5.57.5h20a2.62,2.62,0,0,1,0,5.23h-20c-.38,0-.57.17-.57.5v1.55a.5.5,0,0,0,.57.57h24.9a2.93,2.93,0,0,1,2.16.88,3,3,0,0,1,0,4.25,2.93,2.93,0,0,1-2.16.88H300.31a3,3,0,1,1,0-6h24.34c.33,0,.49-.19.49-.57V34.17a.44.44,0,0,0-.49-.5H305a2.47,2.47,0,0,1-1.87-.78,2.65,2.65,0,0,1,0-3.67,2.47,2.47,0,0,1,1.87-.78h19.67a.44.44,0,0,0,.49-.5V26.46c0-.38-.16-.57-.49-.57H306.47a2.45,2.45,0,0,1-1.8-.74,2.42,2.42,0,0,1-.75-1.77,2.29,2.29,0,0,1,.75-1.73,2.51,2.51,0,0,1,1.8-.71h18.18c.33,0,.49-.19.49-.57V18.68a.44.44,0,0,0-.49-.5H300.31a2.84,2.84,0,0,1-2.08-.88,2.91,2.91,0,0,1-.89-2.13,2.77,2.77,0,0,1,.89-2.08,2.89,2.89,0,0,1,2.08-.85h24.34c.33,0,.49-.19.49-.57V10a.43.43,0,0,0-.49-.49h-17.4a2.35,2.35,0,0,1-1.77-.74,2.56,2.56,0,0,1,0-3.54,2.32,2.32,0,0,1,1.77-.74h17.4a.44.44,0,0,0,.49-.5,3.81,3.81,0,0,1,1.21-2.86A4,4,0,0,1,329.25,0h.49a4,4,0,0,1,4,4c0,.33.19.5.57.5h15.49a4,4,0,0,1,2.94,1.24A4,4,0,0,1,354,8.7v3a.5.5,0,0,0,.56.57h4.74a2.91,2.91,0,0,1,2.09.85,2.76,2.76,0,0,1,.88,2.08,2.9,2.9,0,0,1-.88,2.13,2.86,2.86,0,0,1-2.09.88h-4.74c-.38,0-.56.17-.56.5ZM310.5,68.05a4.06,4.06,0,0,1-2.93-1.2,4,4,0,0,1-1.24-3V48.67a4.22,4.22,0,0,1,4.17-4.17h39.69a4,4,0,0,1,3,1.23,4.1,4.1,0,0,1,1.2,2.94V63.81A4.1,4.1,0,0,1,350.19,68h-2.62a1.93,1.93,0,0,1-1.35-.53,1.74,1.74,0,0,1-.56-1.31c0-.19-.07-.28-.21-.28H314.89c-.14,0-.22.09-.22.28a1.8,1.8,0,0,1-.56,1.34,1.85,1.85,0,0,1-1.35.57Zm35.16-17.47c0-.38-.17-.57-.5-.57h-30c-.33,0-.5.19-.5.57v1.55a.44.44,0,0,0,.5.5h30a.44.44,0,0,0,.5-.5Zm-31,9.34c0,.37.17.56.5.56h30c.33,0,.5-.19.5-.56V58.15a.44.44,0,0,0-.5-.5h-30a.44.44,0,0,0-.5.5ZM334.34,9.55c-.38,0-.57.17-.57.49v1.63a.5.5,0,0,0,.57.57H345c.33,0,.5-.19.5-.57V10a.44.44,0,0,0-.5-.49Zm0,8.63c-.38,0-.57.17-.57.5v1.69a.5.5,0,0,0,.57.57H345c.33,0,.5-.19.5-.57V18.68a.44.44,0,0,0-.5-.5Z"/><path class="cls-1" d="M384,4.39a4.48,4.48,0,0,1,4.1-2.83,4.29,4.29,0,0,1,1.35.21l.21.07a3.84,3.84,0,0,1,2.41,2.05,4,4,0,0,1,.35,1.63,3.73,3.73,0,0,1-.28,1.41Q389.7,12.81,386.87,18a2,2,0,0,0-.28,1V63.67a4.1,4.1,0,0,1-4.1,4.1,3.84,3.84,0,0,1-2.87-1.2,4,4,0,0,1-1.17-2.9V31.83s0-.09-.14-.14a.14.14,0,0,0-.21.07c-.57.66-1,1.2-1.34,1.63a2.43,2.43,0,0,1-1.91.92h-.43a2.58,2.58,0,0,1-2.05-1.56l-.85-1.55a6,6,0,0,1-.71-2.83,3.06,3.06,0,0,1,.07-.64,5.59,5.59,0,0,1,1.35-3.25A76.61,76.61,0,0,0,384,4.39Zm49.38,30.7a4,4,0,0,1,3,1.23,4.1,4.1,0,0,1,1.2,2.94v.07a4.1,4.1,0,0,1-1.2,2.94,4,4,0,0,1-3,1.23H419.55c-.33,0-.49.19-.49.57v19.6a4,4,0,0,1-1.24,3,4.08,4.08,0,0,1-2.94,1.2h-.35a4.1,4.1,0,0,1-2.94-1.2,4,4,0,0,1-1.23-3V44.07c0-.38-.17-.57-.5-.57H395a4,4,0,0,1-3-1.23,4.06,4.06,0,0,1-1.21-2.94v-.07A4.06,4.06,0,0,1,392,36.32a4,4,0,0,1,3-1.23h14.85a.44.44,0,0,0,.5-.5V23.2c0-.37-.17-.56-.5-.56h-7.78a.66.66,0,0,0-.71.49A51.19,51.19,0,0,1,399,28.37a3.45,3.45,0,0,1-2.41,1.91,4.55,4.55,0,0,1-1.06.14,4.19,4.19,0,0,1-2.12-.57c-.09,0-.14-.09-.14-.14a3.63,3.63,0,0,1-1.91-2.33,3.9,3.9,0,0,1-.21-1.21,4,4,0,0,1,.49-1.91,65.88,65.88,0,0,0,5.59-16,4.12,4.12,0,0,1,4-3.33,7.85,7.85,0,0,1,.92.07l.14.07A4,4,0,0,1,405,6.86,3.82,3.82,0,0,1,405.62,9a8.09,8.09,0,0,1-.07,1c-.33,1.18-.69,2.43-1.06,3.75a.32.32,0,0,0,.07.36.48.48,0,0,0,.35.14h4.95a.44.44,0,0,0,.5-.5V5.31a4,4,0,0,1,1.23-2.94,4.05,4.05,0,0,1,2.94-1.24h.35a4,4,0,0,1,2.94,1.24,4,4,0,0,1,1.24,2.94v8.41a.44.44,0,0,0,.49.5H430a4.24,4.24,0,0,1,4.18,4.17v.07a4,4,0,0,1-1.24,3A4.06,4.06,0,0,1,430,22.64H419.55c-.33,0-.49.19-.49.56V34.59a.44.44,0,0,0,.49.5Z"/><path class="cls-1" d="M508.23,5.23a3.32,3.32,0,0,1,2.41,1,3.27,3.27,0,0,1,1,2.4,3.38,3.38,0,0,1-3.4,3.4h-8a.29.29,0,0,0-.29.14.34.34,0,0,0,0,.28,9.45,9.45,0,0,1,.64.85,3,3,0,0,1,.5,1.63,3.07,3.07,0,0,1-.22,1.13A3,3,0,0,1,498.75,18a4.71,4.71,0,0,1-1.34.21,5.19,5.19,0,0,1-2.05-.42,5.82,5.82,0,0,1-2.62-2.27c-.61-1-1.3-2-2.05-3a.89.89,0,0,0-.78-.42h-3.18a1.13,1.13,0,0,0-.85.35,43.38,43.38,0,0,1-3.26,3.68,1.13,1.13,0,0,0-.42.92v2.83c0,.33.19.49.56.49h23a4,4,0,0,1,3,1.24,4.08,4.08,0,0,1,1.2,2.94v6a4.18,4.18,0,1,1-8.35,0V27.31a.5.5,0,0,0-.56-.57H456a.5.5,0,0,0-.57.57v3.32a4,4,0,1,1-8.07,0V24.48a4,4,0,0,1,1.21-2.94,4,4,0,0,1,3-1.24h21.93c.37,0,.56-.16.56-.49v-1.7a2.78,2.78,0,0,1,2.83-2.83q.07-.13,0-.21c-.42-.24-.89-.47-1.41-.71a1.31,1.31,0,0,1-.71-1.06,1.21,1.21,0,0,1,.43-1.13c0-.05.05-.08,0-.11a.16.16,0,0,0-.11,0h-7.64a.27.27,0,0,0-.28.14.28.28,0,0,0,0,.28,5.93,5.93,0,0,1,.36.71,2.84,2.84,0,0,1,.42,1.48,3.43,3.43,0,0,1-.28,1.35,3.7,3.7,0,0,1-2.27,1.91,5.13,5.13,0,0,1-1.2.14,4,4,0,0,1-1.91-.5A4.7,4.7,0,0,1,460,15.21c-.48-.94-1-1.86-1.49-2.76a.89.89,0,0,0-.78-.42h-.21a.89.89,0,0,0-.78.42q-1.34,1.77-2.69,3.4a4.12,4.12,0,0,1-3,1.48,1.23,1.23,0,0,1-.42.07,4.67,4.67,0,0,1-2.83-.92h-.07a3.08,3.08,0,0,1-1.42-2.4v-.43a3.14,3.14,0,0,1,.85-2.19,39.12,39.12,0,0,0,5.87-8.06A5.36,5.36,0,0,1,455.53,1,4.84,4.84,0,0,1,457.58.5a4,4,0,0,1,1.27.21l.71.21a2.78,2.78,0,0,1,1.91,1.56,3.18,3.18,0,0,1,.21,1.13,3.07,3.07,0,0,1-.28,1.27.23.23,0,0,0,0,.25.24.24,0,0,0,.21.1h11.53a4,4,0,0,1,2.94,1.24,4.05,4.05,0,0,1,1.24,2.94v.14c0,.14,0,.22.14.25a.17.17,0,0,0,.21-.11,32.4,32.4,0,0,0,4.67-6.29A5.65,5.65,0,0,1,484.89,1a4.56,4.56,0,0,1,2.19-.57,4.39,4.39,0,0,1,1.13.15l.64.14a2.79,2.79,0,0,1,2,1.62,2.58,2.58,0,0,1,.35,1.21,2.76,2.76,0,0,1-.35,1.34.23.23,0,0,0,0,.25.32.32,0,0,0,.28.1ZM467.34,45.91c-.37,0-.56.17-.56.49v2.27a.49.49,0,0,0,.56.56h32.54a4.09,4.09,0,0,1,2.94,1.21,4,4,0,0,1,1.24,3V63.74a4,4,0,0,1-1.24,3,4.08,4.08,0,0,1-2.94,1.2H497.2a1.69,1.69,0,0,1-1.7-1.7c0-.19-.07-.28-.21-.28H467c-.14,0-.21.09-.21.28a1.71,1.71,0,0,1-1.7,1.7h-2.41a4.06,4.06,0,0,1-2.93-1.2,3.9,3.9,0,0,1-1.24-2.9V33.88a4.24,4.24,0,0,1,4.17-4.17h31.7a4.24,4.24,0,0,1,4.17,4.17v7.86a4.24,4.24,0,0,1-4.17,4.17ZM490,36.5c0-.33-.19-.49-.57-.49H467.34c-.37,0-.56.16-.56.49v2.69a.5.5,0,0,0,.56.57h22.07a.5.5,0,0,0,.57-.57Zm5.52,19.6a.5.5,0,0,0-.57-.57H467.34a.5.5,0,0,0-.56.57v3c0,.33.19.49.56.49h27.59c.38,0,.57-.16.57-.49Z"/><path class="cls-1" d="M538.41,46.55a3,3,0,0,1,1.13-.22,3.79,3.79,0,0,1,3.54,3,6.47,6.47,0,0,1,.07.91,5,5,0,0,1-.64,2.41,4.72,4.72,0,0,1-2.62,2q-5.58,2-15.77,5.24a3.36,3.36,0,0,1-3-.36,3.89,3.89,0,0,1-1.84-2.47l-.14-.57a7.63,7.63,0,0,1-.07-1,4.33,4.33,0,0,1,.63-2.26,4.17,4.17,0,0,1,2.62-1.91c1.41-.38,2.83-.78,4.24-1.21q.57-.13.57-.63v-16c0-.33-.19-.49-.57-.49h-2.83a4,4,0,0,1-2.79-6.76,3.81,3.81,0,0,1,2.79-1.17h2.83a.5.5,0,0,0,.57-.56V12.87c0-.32-.19-.49-.57-.49h-3.39a3.86,3.86,0,0,1-2.87-1.2,4,4,0,0,1-1.16-2.87,4,4,0,0,1,4-4H539a3.89,3.89,0,0,1,2.87,1.17A3.85,3.85,0,0,1,543,8.31a4,4,0,0,1-1.17,2.87,3.84,3.84,0,0,1-2.87,1.2h-3.18c-.38,0-.56.17-.56.49V24.55a.49.49,0,0,0,.56.56h2.05a3.68,3.68,0,0,1,2.76,1.17,4,4,0,0,1,0,5.59A3.68,3.68,0,0,1,537.84,33h-2.05c-.38,0-.56.16-.56.49V47a.34.34,0,0,0,.17.32.31.31,0,0,0,.32,0ZM569,57.23a.49.49,0,0,0,.56.56H582.9a3.9,3.9,0,1,1,0,7.79H544.14a3.9,3.9,0,1,1,0-7.79H559.7a.5.5,0,0,0,.57-.56v-5.8a.5.5,0,0,0-.57-.57H549.09A3.86,3.86,0,0,1,545.27,47a3.74,3.74,0,0,1,1.13-2.73,3.7,3.7,0,0,1,2.69-1.13H559.7a.5.5,0,0,0,.57-.57V37.42c0-.33-.19-.49-.57-.49h-9.76a4,4,0,0,1-3-1.24,4.1,4.1,0,0,1-1.2-2.94V7.43a4.12,4.12,0,0,1,4.17-4.18h29.43a4.12,4.12,0,0,1,4.17,4.18V32.75a4.1,4.1,0,0,1-1.2,2.94,4,4,0,0,1-3,1.24h-9.84c-.37,0-.56.16-.56.49v5.16a.5.5,0,0,0,.56.57h11a3.8,3.8,0,0,1,2.72,1.13,3.76,3.76,0,0,1,0,5.45,3.8,3.8,0,0,1-2.72,1.13h-11a.5.5,0,0,0-.56.57ZM554,10.54a.5.5,0,0,0-.56.57v4.95c0,.33.18.49.56.49h6.37c.38,0,.56-.16.56-.49V11.11a.5.5,0,0,0-.56-.57Zm0,12.8a.5.5,0,0,0-.56.57v5.16c0,.33.18.5.56.5h6.37c.38,0,.56-.17.56-.5V23.91a.5.5,0,0,0-.56-.57Zm20.8-6.79c.38,0,.57-.16.57-.49V11.11a.5.5,0,0,0-.57-.57h-6.08a.5.5,0,0,0-.57.57v4.95c0,.33.19.49.57.49Zm0,13c.38,0,.57-.17.57-.5V23.91a.5.5,0,0,0-.57-.57h-6.08a.5.5,0,0,0-.57.57v5.16c0,.33.19.5.57.5Z"/><path class="cls-1" d="M655.59,35.16a4.24,4.24,0,0,1,4.18,4.17v.43a4,4,0,0,1-1.24,3,4.06,4.06,0,0,1-2.94,1.2H631.83a.5.5,0,0,0-.57.57V63.67a4.1,4.1,0,0,1-4.17,4.17h-.57a4.1,4.1,0,0,1-4.17-4.17V44.5a.5.5,0,0,0-.57-.57H598.3a4.1,4.1,0,0,1-2.94-1.2,4,4,0,0,1-1.24-3v-.43a4.24,4.24,0,0,1,4.18-4.17h23.48c.38,0,.57-.17.57-.5V13.72c0-.33-.19-.49-.57-.49H602.05A4,4,0,0,1,599.11,12a4,4,0,0,1-1.24-2.94V8.84a4,4,0,0,1,1.24-2.93,4,4,0,0,1,2.94-1.24h49.37a4,4,0,0,1,2.94,1.24,4,4,0,0,1,1.23,2.93v.21A4,4,0,0,1,654.36,12a4,4,0,0,1-2.94,1.24H631.83c-.38,0-.57.16-.57.49V34.66c0,.33.19.5.57.5ZM604,21.65a4,4,0,0,1-.29-1.49A3.7,3.7,0,0,1,604,18.6a3.66,3.66,0,0,1,2.26-1.91,4.93,4.93,0,0,1,1.42-.21,4.39,4.39,0,0,1,1.9.43A4.64,4.64,0,0,1,612,19.24q1.77,3.82,2.9,7.07a4.08,4.08,0,0,1,.21,1.28,3.65,3.65,0,0,1-.56,1.91A4.12,4.12,0,0,1,612,31.55l-.42.14a3.41,3.41,0,0,1-3.05-.35,4.15,4.15,0,0,1-2-2.48C605.87,26.55,605,24.15,604,21.65Zm42.65,7.78a4.76,4.76,0,0,1-2.47,2.12,5,5,0,0,1-1.84.35,4.93,4.93,0,0,1-1.42-.21,3,3,0,0,1-2-1.84,3.07,3.07,0,0,1-.28-1.27,4,4,0,0,1,.28-1.49q1.77-3.75,3.25-7.78a4.75,4.75,0,0,1,2.13-2.54,4.41,4.41,0,0,1,2.12-.57,4.86,4.86,0,0,1,1.13.14l1.06.28a3.26,3.26,0,0,1,2.27,1.84,3.71,3.71,0,0,1,.35,1.49,3.63,3.63,0,0,1-.35,1.48Q648.53,26.11,646.61,29.43Z"/><path class="cls-1" d="M711.52,15.28a3.39,3.39,0,0,1-1.13-2.55A3.31,3.31,0,0,1,711.8,10h.07A5,5,0,0,1,715,8.91h.14a4.84,4.84,0,0,1,3.25,1.21A104.76,104.76,0,0,1,732.32,24.4a4,4,0,0,1,.85,2.41,5.63,5.63,0,0,1-.07.78,4.85,4.85,0,0,1-1.77,2.83l-.85.63a3.46,3.46,0,0,1-2.19.78,3.35,3.35,0,0,1-.71-.07,4.23,4.23,0,0,1-2.62-1.7c-.61-.84-1.3-1.74-2.05-2.68a1.16,1.16,0,0,0-.85-.36Q702,28.09,674,29.14h-.21A4,4,0,0,1,670.92,28a4.19,4.19,0,0,1-1.42-2.9v-.35a3.69,3.69,0,0,1,1-2.94,4.06,4.06,0,0,1,2.86-1.31l6.51-.21a.89.89,0,0,0,.78-.42,121.16,121.16,0,0,0,8.77-16.34,4.34,4.34,0,0,1,2.33-2.34,3.87,3.87,0,0,1,1.84-.49A3.78,3.78,0,0,1,695,1l2,.64a3.18,3.18,0,0,1,2.12,2,3.07,3.07,0,0,1,.28,1.27A3.38,3.38,0,0,1,699,6.51q-3.75,6.72-7.85,13a.2.2,0,0,0,0,.29.31.31,0,0,0,.25.14q8.13-.28,23.49-1a.24.24,0,0,0,.21-.14.15.15,0,0,0-.07-.22Q713.43,17,711.52,15.28ZM681.1,67.77a4.06,4.06,0,0,1-2.93-1.2,4,4,0,0,1-1.24-3V40.11a4,4,0,0,1,1.24-3,4.06,4.06,0,0,1,2.93-1.2H721a4.1,4.1,0,0,1,2.94,1.2,4,4,0,0,1,1.23,3V63.52A4.22,4.22,0,0,1,721,67.7h-2.62a2.55,2.55,0,0,1-2.47-2.48c0-.24-.12-.35-.36-.35H686.13c-.24,0-.36.11-.36.35a2.53,2.53,0,0,1-2.54,2.55Zm34.81-23.13a.5.5,0,0,0-.57-.57H686.27c-.33,0-.5.19-.5.57V56.1a.44.44,0,0,0,.5.49h29.07c.38,0,.57-.16.57-.49Z"/></g></g></svg>