<?xml version="1.0" encoding="utf-8"?>
<!-- Generator: Adobe Illustrator 18.0.0, SVG Export Plug-In . SVG Version: 6.00 Build 0)  -->
<!DOCTYPE svg PUBLIC "-//W3C//DTD SVG 1.1//EN" "http://www.w3.org/Graphics/SVG/1.1/DTD/svg11.dtd">
<svg version="1.1" id="圖層_1" xmlns="http://www.w3.org/2000/svg" xmlns:xlink="http://www.w3.org/1999/xlink" x="0px" y="0px"
	 viewBox="0 0 141.4 35.8" enable-background="new 0 0 141.4 35.8" xml:space="preserve">
<path fill="#00A8FC" d="M134.8,34.2H6.5c-2.8,0-5-2.3-5-5V6.6c0-2.7,2.3-5,5-5h128.3c2.8,0,5,2.3,5,5v22.6
	C139.8,31.9,137.6,34.2,134.8,34.2z"/>
<text transform="matrix(1 0 0 1 45.757 25.5276)" fill="#FFFFFF" stroke="#FFFFFF" stroke-width="0.3" stroke-miterlimit="10" font-family="'MicrosoftJhengHeiBold'" font-size="18.2153" letter-spacing="1">儲存草稿</text>
<g>
	<path fill="#FFFFFF" d="M17.5,23.6c0-4.4,3.5-7.9,7.9-7.9c1.7,0,3.2,0.5,4.5,1.4c0-1.7,0-3.4,0-5.1c0-0.2-0.1-0.3-0.2-0.5
		c-1.6-1.6-3.3-3.3-4.9-4.9c-0.2-0.2-0.3-0.2-0.6-0.2c-5.2,0-10.3,0-15.5,0c-0.1,0-0.3,0-0.4,0c0,7.2,0,14.4,0,21.6
		c1.6,0,3.1,0,4.7,0c0,0,0,0,0,0c1.9,0,3.8,0,5.7,0C18,26.6,17.5,25.1,17.5,23.6z"/>
	<circle fill="#FFFFFF" cx="25.4" cy="23.5" r="6.7"/>
	<g>
		<path fill="#00A8FC" d="M20.3,24.1c0,0,0.1-0.1,0.1-0.1c0.4-0.4,0.9-0.8,1.3-1.2c0.7,0.8,1.5,1.6,2.2,2.3c1.7-1.6,3.4-3.2,5.2-4.8
			c0.5,0.5,0.9,1,1.3,1.5c-2.2,2-4.4,4.1-6.6,6.1c0,0-0.1-0.1-0.1-0.1C22.6,26.5,21.5,25.3,20.3,24.1C20.3,24.1,20.3,24.1,20.3,24.1
			C20.3,24.1,20.3,24.1,20.3,24.1z"/>
	</g>
	<g>
		<polygon fill="#00A8FC" points="25,12.3 12.5,12.3 12.5,6.3 13.8,6.3 13.8,11 23.7,11 23.7,6.3 25,6.3 		"/>
	</g>
</g>
</svg>
