<?xml version="1.0" encoding="utf-8"?>
<!-- Generator: Adobe Illustrator 18.0.0, SVG Export Plug-In . SVG Version: 6.00 Build 0)  -->
<!DOCTYPE svg PUBLIC "-//W3C//DTD SVG 1.1//EN" "http://www.w3.org/Graphics/SVG/1.1/DTD/svg11.dtd">
<svg version="1.1" id="圖層_1" xmlns="http://www.w3.org/2000/svg" xmlns:xlink="http://www.w3.org/1999/xlink" x="0px" y="0px"
	 viewBox="0 0 25.4 25.3" enable-background="new 0 0 25.4 25.3" xml:space="preserve">
<text transform="matrix(1 0 0 1 0.6873 24.4332)" fill="#00A8FC" stroke="#00A8FC" stroke-width="0.2" stroke-miterlimit="10" font-family="'MicrosoftJhengHeiBold'" font-size="6">編輯草稿</text>
<g>
	<g>
		<path fill="#00A8FC" d="M19.1,16.3c-0.6-0.4-1.1-0.7-1.7-1.1c1-1.6,2-3.2,3.1-4.9c0.6,0.4,1.1,0.7,1.7,1.1
			C21.2,13.1,20.2,14.7,19.1,16.3z"/>
		<path fill="#00A8FC" d="M22.4,11.2c-0.6-0.4-1.1-0.7-1.7-1.1c0.2-0.2,0.3-0.5,0.5-0.7c0.1-0.1,0.3-0.2,0.5-0.1
			c0.3,0.2,0.7,0.4,1,0.7c0.2,0.1,0.2,0.3,0.1,0.5C22.7,10.7,22.5,11,22.4,11.2z"/>
		<path fill="#00A8FC" d="M17.3,15.5c0.6,0.4,1.1,0.7,1.7,1.1c0,0-0.1,0.1-0.1,0.1c-0.5,0.3-0.9,0.6-1.4,0.9c-0.1,0.1-0.2,0.1-0.3,0
			C17,17.6,17,17.5,17,17.4c0.1-0.6,0.2-1.1,0.2-1.7C17.2,15.6,17.3,15.6,17.3,15.5z"/>
	</g>
	<path fill="#00A8FC" d="M21.2,4.7c-1.5-1.3-3.1-2.7-4.6-4c-0.1-0.1-0.2-0.1-0.3-0.1c-2.9,0-5.8,0-8.8,0c-0.2,0-0.5,0-0.7,0.1
		C5.7,0.9,5,1.7,5,2.8C5,3.5,5,4.3,5,5c0,3.6,0,7.2,0,10.8c0,0.3,0.1,0.6,0.2,0.9C5.6,17.5,6.5,18,7.6,18c2.8,0,5.6,0,8.5,0
		c0.1,0,0.1,0,0.2,0v-1.1h0c-0.1,0-0.2,0-0.2,0c-2.8,0-5.6,0-8.4,0c-0.8,0-1.3-0.4-1.3-1.1c0-4.3,0-8.6,0-13c0-0.7,0.5-1.1,1.3-1.1
		c2.5,0,4.9,0,7.4,0c0.1,0,0.1,0,0.2,0c0,0.1,0,0.2,0,0.2c0,0.7,0,1.4,0.1,2.1c0.1,1.1,1,1.8,2.3,1.8c0.8,0,1.5,0,2.3,0
		c0.1,0,0.1,0,0.2,0c0,1.5,0,2.9,0,4.3c0,0,0,0,0,0c0.4-0.6,0.8-1.1,1.2-1.7c0-0.1,0.1-0.1,0.1-0.2c0-1.1,0-2.3,0-3.4
		C21.4,4.8,21.3,4.7,21.2,4.7z"/>
</g>
<rect x="7.6" y="7.4" fill="#00A8FC" width="7.9" height="1.1"/>
<rect x="7.6" y="12.2" fill="#00A8FC" width="10.4" height="1.1"/>
</svg>
